<?xml version="1.0" standalone="no"?>
<!DOCTYPE svg PUBLIC "-//W3C//DTD SVG 20010904//EN"
 "http://www.w3.org/TR/2001/REC-SVG-20010904/DTD/svg10.dtd">
<svg version="1.0" xmlns="http://www.w3.org/2000/svg"
 width="435.000000pt" height="435.000000pt" viewBox="0 0 435.000000 435.000000"
 preserveAspectRatio="xMidYMid meet">

<g transform="translate(0.000000,435.000000) scale(0.100000,-0.100000)"
fill="#000000" stroke="none">
<path d="M0 2175 l0 -2175 2175 0 2175 0 0 2175 0 2175 -2175 0 -2175 0 0
-2175z m2367 763 c16 -18 101 -123 189 -233 87 -110 253 -319 369 -465 116
-146 243 -306 283 -356 40 -51 75 -106 78 -123 9 -43 -3 -94 -27 -119 -19 -21
-28 -22 -199 -22 -172 0 -180 1 -203 23 -30 27 -759 944 -775 974 -7 12 -12
42 -12 67 0 46 4 53 109 186 70 90 82 100 121 100 28 0 43 -7 67 -32z m-504
-385 c19 -21 131 -159 248 -308 117 -148 216 -272 219 -275 3 -3 37 -45 75
-95 68 -87 70 -92 70 -147 0 -46 -4 -61 -24 -82 l-24 -26 -180 0 -179 0 -26
28 c-15 15 -67 78 -115 140 -85 108 -89 112 -126 112 -48 0 -58 -9 -161 -140
-45 -58 -91 -113 -102 -122 -18 -16 -43 -18 -197 -18 -97 0 -181 4 -187 8 -45
31 -57 115 -24 169 10 17 72 98 136 180 65 81 196 247 292 368 96 121 182 226
190 233 32 25 78 15 115 -25z"/>
</g>
</svg>
